<svg width="48" height="49" viewBox="0 0 48 49" fill="none" xmlns="http://www.w3.org/2000/svg">
<rect x="0.5" y="1" width="47" height="47" rx="23.5" fill="#0F0F0F"/>
<rect x="0.5" y="1" width="47" height="47" rx="23.5" stroke="#262626"/>
<path fill-rule="evenodd" clip-rule="evenodd" d="M20.875 17.625L30.25 17.625C30.4158 17.625 30.5747 17.6908 30.6919 17.8081C30.8092 17.9253 30.875 18.0842 30.875 18.25V27.625C30.875 27.9702 30.5952 28.25 30.25 28.25C29.9048 28.25 29.625 27.9702 29.625 27.625V19.7589L18.1919 31.1919C17.9479 31.436 17.5521 31.436 17.3081 31.1919C17.064 30.9479 17.064 30.5521 17.3081 30.3081L28.7411 18.875L20.875 18.875C20.5298 18.875 20.25 18.5952 20.25 18.25C20.25 17.9048 20.5298 17.625 20.875 17.625Z" fill="#E7BEB1"/>
</svg>
