<svg width="98" height="19" viewBox="0 0 98 19" fill="none" xmlns="http://www.w3.org/2000/svg">
<path d="M97.2803 18.5H94.8075V7.60464H87.9163V18.5H85.4561V5.13184H87.9163V7.49167C87.933 7.16531 88.0084 6.85987 88.1422 6.57535C88.2761 6.28246 88.4519 6.03142 88.6694 5.82221C88.8954 5.60464 89.1548 5.43728 89.4477 5.32012C89.7406 5.1946 90.0544 5.13184 90.3891 5.13184H94.8075C95.1506 5.13184 95.4728 5.19878 95.774 5.33267C96.0753 5.4582 96.3347 5.63393 96.5523 5.85987C96.7782 6.07744 96.954 6.33686 97.0795 6.63811C97.2134 6.93937 97.2803 7.26154 97.2803 7.60464V18.5Z" fill="#F3DFD8"/>
<path d="M81.3263 13.0774H72.4769V16.0272H81.3263V18.5H72.4769C72.1422 18.5 71.8242 18.4373 71.5229 18.3118C71.2217 18.1779 70.9581 18.0021 70.7321 17.7846C70.5146 17.5586 70.3388 17.295 70.2049 16.9938C70.0794 16.6925 70.0167 16.3703 70.0167 16.0272V7.60464C70.0167 7.26154 70.0794 6.93937 70.2049 6.63811C70.3388 6.33686 70.5146 6.07744 70.7321 5.85987C70.9581 5.63393 71.2217 5.4582 71.5229 5.33267C71.8242 5.19878 72.1422 5.13184 72.4769 5.13184H78.8535C79.1966 5.13184 79.5188 5.19878 79.82 5.33267C80.1213 5.4582 80.3807 5.63393 80.5983 5.85987C80.8242 6.07744 80.9999 6.33686 81.1254 6.63811C81.2593 6.93937 81.3263 7.26154 81.3263 7.60464V13.0774ZM72.4769 7.60464V10.6046H78.8535V7.60464H72.4769Z" fill="#F3DFD8"/>
<path d="M50.7365 3.07322C50.7365 2.72176 50.8034 2.39121 50.9373 2.08159C51.0712 1.7636 51.2553 1.49163 51.4896 1.26569C51.7239 1.03138 51.9959 0.84728 52.3055 0.713389C52.6235 0.57113 52.9582 0.5 53.3097 0.5H63.0754C63.4268 0.5 63.7574 0.57113 64.067 0.713389C64.385 0.84728 64.6611 1.03138 64.8954 1.26569C65.1298 1.49163 65.3139 1.7636 65.4477 2.08159C65.5816 2.39121 65.6486 2.72176 65.6486 3.07322V5.3954H63.0754V3.07322H53.3097V15.9268H63.0754V11.5586H58.1925V8.98536H65.6486V15.9268C65.6486 16.2782 65.5816 16.613 65.4477 16.931C65.3139 17.2406 65.1298 17.5126 64.8954 17.7469C64.6611 17.9812 64.385 18.1653 64.067 18.2992C63.7574 18.4331 63.4268 18.5 63.0754 18.5H53.3097C52.9582 18.5 52.6235 18.4331 52.3055 18.2992C51.9959 18.1653 51.7239 17.9812 51.4896 17.7469C51.2553 17.5126 51.0712 17.2406 50.9373 16.931C50.8034 16.613 50.7365 16.2782 50.7365 15.9268V3.07322Z" fill="#F3DFD8"/>
<path d="M47.4227 5.13184L42.565 11.659L47.6487 18.5H44.6612L41.0713 13.6674L37.4688 18.5H34.4813L39.5776 11.659L34.7198 5.13184H37.6947L41.0713 9.65066L44.4353 5.13184H47.4227Z" fill="#F3DFD8"/>
<path d="M31.6445 13.0774H22.7952V16.0272H31.6445V18.5H22.7952C22.4604 18.5 22.1424 18.4373 21.8412 18.3118C21.5399 18.1779 21.2763 18.0021 21.0504 17.7846C20.8328 17.5586 20.6571 17.295 20.5232 16.9938C20.3977 16.6925 20.3349 16.3703 20.3349 16.0272V7.60464C20.3349 7.26154 20.3977 6.93937 20.5232 6.63811C20.6571 6.33686 20.8328 6.07744 21.0504 5.85987C21.2763 5.63393 21.5399 5.4582 21.8412 5.33267C22.1424 5.19878 22.4604 5.13184 22.7952 5.13184H29.1717C29.5148 5.13184 29.837 5.19878 30.1382 5.33267C30.4395 5.4582 30.6989 5.63393 30.9165 5.85987C31.1424 6.07744 31.3182 6.33686 31.4437 6.63811C31.5776 6.93937 31.6445 7.26154 31.6445 7.60464V13.0774ZM22.7952 7.60464V10.6046H29.1717V7.60464H22.7952Z" fill="#F3DFD8"/>
<path d="M2.57322 18.5H0V0.5H2.57322L13.3933 14.4582V0.5H15.9665V18.5H13.3933L2.57322 4.54184V18.5Z" fill="#F3DFD8"/>
</svg>
